<?xml version="1.0" standalone="no"?>
<!DOCTYPE svg PUBLIC "-//W3C//DTD SVG 20010904//EN"
 "http://www.w3.org/TR/2001/REC-SVG-20010904/DTD/svg10.dtd">
<svg version="1.0" xmlns="http://www.w3.org/2000/svg"
 width="236.000000pt" height="236.000000pt" viewBox="0 0 236.000000 236.000000"
 preserveAspectRatio="xMidYMid meet">
<metadata>
Created by potrace 1.11, written by Peter Selinger 2001-2013
</metadata>
<g transform="translate(0.000000,236.000000) scale(0.100000,-0.100000)"
fill="#000000" stroke="none">
<path d="M1135 2058 c9 -26 11 -123 4 -177 -5 -31 -11 -82 -14 -113 -3 -32
-13 -83 -21 -115 -9 -32 -17 -66 -19 -75 -2 -9 -9 -26 -15 -37 -6 -12 -10 -27
-9 -34 2 -13 -7 -41 -22 -69 -5 -10 -9 -24 -9 -32 0 -16 -25 -22 -116 -25 -38
-2 -91 -4 -119 -6 -27 -1 -65 -3 -82 -4 -44 -1 -41 -11 10 -41 36 -21 55 -24
143 -25 55 -1 106 -5 112 -9 8 -5 -1 -31 -29 -84 -49 -95 -54 -100 -104 -107
-66 -8 -264 -20 -358 -20 -97 0 -106 -8 -57 -49 41 -34 121 -44 296 -36 99 5
104 -7 40 -95 -143 -195 -299 -349 -445 -440 -9 -5 -19 -14 -23 -20 -5 -7 -8
-7 -8 0 0 6 -3 6 -8 0 -4 -6 -38 -31 -77 -55 -72 -45 -97 -68 -91 -85 5 -15
31 -7 140 43 175 81 293 161 425 292 83 81 181 195 181 208 0 4 12 21 26 37
14 17 33 43 41 59 35 67 50 74 158 80 55 3 116 8 136 11 44 7 74 -14 129 -93
35 -51 80 -110 257 -337 26 -33 73 -94 104 -135 59 -78 119 -133 163 -150 24
-9 85 -14 278 -25 79 -4 93 1 100 39 3 21 -9 29 -92 64 -25 10 -70 29 -100 42
-84 36 -251 137 -301 181 -84 76 -184 176 -284 283 -102 110 -122 136 -108
137 4 0 55 2 113 4 182 6 285 19 303 37 15 17 21 42 7 33 -5 -3 -10 -3 -10 2
0 4 -16 19 -36 32 -32 22 -46 25 -142 25 -59 0 -136 -3 -172 -7 -107 -13 -150
-17 -255 -22 -55 -3 -106 -8 -112 -10 -15 -5 -17 8 -4 33 5 9 21 43 36 75 15
31 34 61 44 67 10 5 46 12 81 15 35 3 67 8 72 11 8 5 52 10 178 19 62 4 119
13 132 21 17 10 7 33 -23 54 -23 17 -45 22 -92 23 -76 0 -113 -3 -152 -14 -16
-4 -43 -10 -60 -13 -16 -2 -49 -7 -72 -11 l-43 -7 36 103 c19 57 37 113 39
124 3 11 14 56 26 100 42 157 50 198 47 234 -3 33 -8 38 -67 69 -66 33 -114
42 -106 20z"/>
</g>
</svg>
